# xmcd
#
# Track frame offsets: 
#        182
#        53432
#        88382
#        109982
#        137807
#        179132
#        199757
#        216632
#
# Disc length: 3276 seconds
#
# Revision: 1
# Processed by: cddbd v1.5.1PL0 Copyright (c) Steve Scherf et al.
# Submitted via: ExactAudioCopy v0.95a5
#
DISCID=810cca08
DTITLE=Marriner - SCHUBERT - The Ten Symphonies [CD1)
DYEAR=2002
DGENRE=Classical
TTITLE0=Symphony No. 1 in D, D.82 - 1. Adagio - Allegro vivace
TTITLE1=Symphony No. 1 in D, D.82 - 2. Andante
TTITLE2=Symphony No. 1 in D, D.82 - 3. Allegro
TTITLE3=Symphony No. 1 in D, D.82 - 4. Allegro vivace
TTITLE4=Symphony No. 3 in D, D.200 - 1. Adagio maestoso - Allegro con 
TTITLE4=brio
TTITLE5=Symphony No. 3 in D, D.200 - 2. Allegretto
TTITLE6=Symphony No. 3 in D, D.200 - 3. Menuetto (Vivace)
TTITLE7=Symphony No. 3 in D, D.200 - 4. Presto. Vivace 
EXTD=\nComposers: Franz Peter Schubert 1797-1828\nTitle: The Ten Symph
EXTD=onies (6 CDs]\nArtists: Sir Neville Marriner, The Academy of St. 
EXTD=Martin in the Fields\nInternational release date: September 2002\n
EXTD=Catalogue number: 470886\nSeries - Collector's Edition\nLabel: Ph
EXTD=ilips\n\nCD1\n\n
EXTT0=
EXTT1=
EXTT2=
EXTT3=
EXTT4=
EXTT5=
EXTT6=
EXTT7=
PLAYORDER=
